<?xml version="1.0" encoding="utf-8"?>
<!-- Generator: Adobe Illustrator 25.0.0, SVG Export Plug-In . SVG Version: 6.00 Build 0)  -->
<svg version="1.1" id="Layer_1" xmlns="http://www.w3.org/2000/svg" xmlns:xlink="http://www.w3.org/1999/xlink" x="0px" y="0px"
	 viewBox="0 0 16 16" style="enable-background:new 0 0 16 16;" xml:space="preserve">
<style type="text/css">
	.st0{fill:#3387C5;}
</style>
<g>
	<g>
		<path class="st0" d="M7.1,14.5c-0.3,0-0.7-0.1-0.9-0.4L1.9,9.8c-0.5-0.5-0.5-1.4,0-1.9s1.4-0.5,1.9,0L8,12.2
			c0.5,0.5,0.5,1.4,0,1.9C7.8,14.4,7.4,14.5,7.1,14.5z"/>
	</g>
	<g>
		<path class="st0" d="M7.1,14.5c-0.2,0-0.5-0.1-0.7-0.2c-0.6-0.4-0.8-1.2-0.4-1.9l6-10.2c0.4-0.6,1.2-0.8,1.8-0.5
			c0.6,0.4,0.8,1.2,0.5,1.9L8.2,13.8C8,14.3,7.5,14.5,7.1,14.5z"/>
	</g>
</g>
</svg>
